<?xml version="1.0" standalone="no"?>
<!DOCTYPE svg PUBLIC "-//W3C//DTD SVG 20010904//EN"
 "http://www.w3.org/TR/2001/REC-SVG-20010904/DTD/svg10.dtd">
<svg version="1.0" xmlns="http://www.w3.org/2000/svg"
 width="512.000000pt" height="512.000000pt" viewBox="0 0 512.000000 512.000000"
 preserveAspectRatio="xMidYMid meet">
<metadata>
Created by potrace 1.14, written by Peter Selinger 2001-2017
</metadata>
<g transform="translate(0.000000,512.000000) scale(0.100000,-0.100000)"
fill="#000000" stroke="none">
<path d="M2406 5082 c-3 -5 -21 -9 -39 -10 -19 -1 -48 -4 -63 -6 -16 -3 -51
-8 -79 -11 -50 -5 -90 -12 -90 -15 0 -1 -13 -4 -30 -6 -51 -8 -240 -56 -245
-63 -3 -3 -15 -7 -28 -8 -74 -8 -398 -153 -544 -244 -44 -27 -82 -49 -84 -49
-3 0 -10 -4 -17 -10 -57 -47 -76 -60 -86 -60 -6 0 -11 -4 -11 -10 0 -5 -7 -10
-15 -10 -8 0 -15 -4 -15 -8 0 -4 -21 -24 -48 -43 -111 -84 -296 -267 -397
-393 -16 -21 -38 -47 -47 -58 -10 -12 -39 -53 -65 -92 -27 -39 -51 -72 -55
-74 -5 -2 -8 -10 -8 -18 0 -8 -5 -14 -12 -14 -6 0 -9 -3 -5 -6 3 -4 -7 -26
-23 -49 -54 -78 -173 -330 -190 -400 -1 -5 -11 -27 -21 -47 -11 -21 -17 -38
-15 -38 2 0 -4 -25 -15 -55 -10 -30 -19 -61 -19 -70 0 -8 -5 -15 -11 -15 -5 0
-8 -4 -5 -8 4 -6 -5 -54 -29 -157 -17 -74 -26 -136 -40 -270 -5 -48 -6 -392
-1 -455 2 -25 7 -67 11 -95 4 -27 9 -59 10 -70 11 -77 49 -251 62 -285 3 -8 7
-22 9 -30 2 -8 13 -42 24 -75 11 -33 22 -67 24 -75 4 -14 13 -36 54 -135 9
-22 36 -77 59 -122 22 -45 39 -84 35 -87 -3 -3 -1 -6 5 -6 5 0 15 -12 22 -27
15 -34 171 -268 203 -305 13 -15 34 -42 48 -60 37 -49 279 -289 325 -324 22
-16 54 -41 70 -56 17 -16 35 -28 42 -28 6 0 13 -4 15 -8 4 -12 125 -92 137
-92 6 0 11 -4 11 -8 0 -5 17 -17 37 -28 79 -42 138 -76 150 -86 7 -6 13 -8 13
-4 0 4 12 -1 27 -11 14 -9 31 -18 37 -19 6 -2 53 -21 104 -43 51 -23 101 -43
110 -45 9 -1 24 -6 32 -9 26 -10 114 -39 130 -42 8 -2 35 -8 60 -15 25 -7 54
-14 65 -16 11 -2 31 -6 45 -9 14 -2 37 -7 53 -10 15 -3 39 -8 55 -11 78 -16
239 -27 397 -27 143 0 237 5 335 20 25 3 54 7 65 9 11 1 20 3 20 4 0 1 9 3 20
5 63 9 104 18 140 27 22 6 47 13 55 14 45 8 202 60 301 100 106 42 321 151
387 195 24 16 45 29 48 29 8 0 147 102 229 169 131 106 261 234 365 362 52 63
170 228 170 237 0 5 8 17 18 28 10 10 25 33 34 49 104 196 134 259 169 347 45
113 89 244 105 313 1 6 9 41 18 79 20 83 43 224 52 321 9 90 10 371 1 455 -13
123 -17 155 -21 180 -3 14 -8 43 -11 65 -14 90 -83 335 -114 410 -5 11 -24 56
-42 100 -40 95 -135 284 -155 306 -8 8 -14 19 -14 23 0 6 -86 138 -112 171
-123 160 -323 370 -424 447 -30 22 -54 44 -54 49 0 5 -6 9 -14 9 -8 0 -16 3
-18 8 -9 22 -236 164 -373 234 -91 46 -251 117 -276 122 -8 2 -21 6 -29 9 -54
20 -196 62 -240 71 -14 3 -36 8 -50 11 -43 9 -191 35 -198 34 -4 -1 -9 0 -12
1 -8 3 -93 12 -125 14 -16 0 -33 5 -37 11 -5 6 -8 4 -8 -5 0 -13 -2 -13 -9 -1
-8 13 -12 13 -27 0 -10 -8 -15 -9 -11 -3 5 8 -22 12 -93 13 -76 1 -100 -1
-100 -11 0 -9 -3 -9 -10 2 -8 13 -13 13 -30 2 -16 -10 -25 -10 -35 -2 -7 6
-16 7 -19 2z"/>
</g>
</svg>
